<?xml version="1.0" encoding="utf-8"?>
<!DOCTYPE svg PUBLIC "-//W3C//DTD SVG 20010904//EN" "http://www.w3.org/TR/2001/REC-SVG-20010904/DTD/svg10.dtd">
<svg version="1.0" xmlns="http://www.w3.org/2000/svg" width="564px" height="564px" viewBox="0 0 564 564" preserveAspectRatio="xMidYMid meet">
 <g fill="#000000">
  <path d="M222.8 428.2 c-18.7 -28.4 -83.3 -125.9 -115.6 -174.7 -18 -27.1 -23.2 -35.7 -23.2 -38.1 l0 -3.2 15.3 -0.6 c8.3 -0.3 60 -1 114.7 -1.6 54.7 -0.6 105.7 -1.3 113.3 -1.7 l13.7 -0.6 0 3.1 c0 1.6 -2.5 8.4 -5.6 14.9 l-5.6 12 -22.1 0.6 c-12.2 0.4 -38.4 0.7 -58.2 0.7 -31.8 0 -110.7 1 -111.2 1.4 -0.1 0.1 6.3 10 14.2 22.1 7.9 12.1 17.9 27.4 22.1 34 4.3 6.6 13.7 21 20.9 32 7.2 11 18.9 29 26 40 7 11 13.1 20.2 13.5 20.5 0.4 0.3 0.9 1 1.1 1.5 0.8 1.9 7.4 11.5 8 11.5 0.3 0 3.7 -4.3 7.5 -9.5 6.4 -8.9 7.1 -9.5 10.4 -9.5 3.2 0 4.1 0.7 9.8 8 7.8 10 7.9 11.6 1.4 20.7 -2.6 3.8 -9.9 14.3 -16.1 23.6 -11.2 16.6 -11.4 16.7 -15 16.6 -3.6 0 -3.7 -0.1 -19.3 -23.7z"/>
  <path d="M321.5 444 c-2.2 -3.2 -9.2 -13.1 -15.5 -22 -6.3 -8.9 -17.3 -24.4 -24.5 -34.5 -17.5 -24.8 -33.1 -46.8 -46.4 -65.5 -6.1 -8.5 -14.5 -20.4 -18.8 -26.5 -4.2 -6 -12.1 -17.2 -17.5 -24.7 -8 -11.2 -9.8 -14.3 -9.8 -17.2 l0 -3.6 17.3 0 17.3 0 6.2 8.9 c3.5 4.8 7.1 9.7 8 10.7 1 1 7.6 9.9 14.7 19.8 7.2 9.8 17 23.3 21.8 30 4.8 6.6 9.7 13.1 10.7 14.4 1.1 1.2 8.4 11 16.2 21.8 24.9 34.3 28 38.4 28.7 38.4 0.7 0 7.4 -10.4 17.6 -27.1 9.4 -15.5 39.6 -64.2 51.9 -83.7 12.1 -19.2 25.6 -41.3 25.6 -42 0 -0.2 -3.1 -0.1 -7 0.2 -3.8 0.4 -12.4 0.4 -19 0 l-12 -0.7 0 -2.8 c0 -2.1 2.6 -6.5 9 -15.2 l8.9 -12.4 23.3 -0.6 c12.8 -0.4 29.7 -0.7 37.6 -0.7 l14.2 0 0 3.9 c0 4.1 -1.6 7 -24.5 42.6 -5.6 8.8 -15.7 24.8 -22.5 35.5 -6.8 10.7 -16.8 26.3 -22.2 34.7 -5.4 8.4 -9.8 15.4 -9.8 15.7 0 0.2 -6 9.6 -13.2 21 -7.3 11.3 -17.3 27 -22.2 34.8 -4.9 7.9 -14.3 22.6 -20.8 32.7 -6.5 10.1 -11.8 18.7 -11.8 19.2 0 0.5 -1.7 0.9 -3.7 0.8 -3.5 0 -4.1 -0.5 -7.8 -5.9z"/>
  <path d="M299.1 337.3 c-4.9 -6.1 -7.1 -9.6 -7.1 -11.5 0 -2.8 6.7 -15.8 23 -44.8 18.3 -32.5 22 -39.2 22 -39.6 0 -0.3 4.7 -8.7 10.3 -18.7 5.7 -10 12.3 -21.8 14.7 -26.2 2.4 -4.4 7 -12.7 10.2 -18.4 3.1 -5.8 5.6 -10.6 5.5 -10.7 -0.1 -0.2 -44.1 -0.6 -97.6 -1 l-97.4 -0.6 2 3.3 c1.1 1.9 3.6 6.2 5.7 9.5 3.9 6.7 4.7 11.8 1.9 12.8 -0.9 0.4 -8.9 0.9 -17.7 1.2 l-16.1 0.6 -11.7 -15.9 c-6.4 -8.7 -14.8 -19.9 -18.7 -25 -5.1 -6.6 -7.1 -10.1 -7.1 -12.1 l0 -2.9 26.8 -0.6 c14.7 -0.3 85.1 -0.6 156.5 -0.6 l129.7 -0.1 0 3.6 c0 2 -1.1 5.5 -2.7 8.2 -3.4 5.9 -16.6 28.2 -25.7 43.2 -3.8 6.3 -9.2 15.3 -11.9 20 -2.8 4.7 -8.4 14.1 -12.5 21 -4.1 6.9 -13.1 22 -20 33.5 -6.9 11.6 -18.2 30.5 -25.2 42 -6.9 11.6 -14.9 24.8 -17.6 29.5 -4.7 8 -5.2 8.5 -8.6 8.8 -3.5 0.3 -3.9 -0.1 -10.7 -8.5z"/>
 </g>
 <g fill="#ffffff">
  <path d="M239.7 456.3 c-1.8 -0.5 -21.3 -29.1 -50.5 -74.2 -8.4 -13 -16.6 -25.2 -18.1 -27.1 -2.8 -3.6 -14.9 -21.8 -31.5 -47.5 -5.4 -8.2 -11.5 -17.5 -13.6 -20.5 -2.1 -3 -10.5 -15.6 -18.6 -27.8 -8.2 -12.3 -17.5 -26.3 -20.7 -31 -3.2 -4.8 -6.2 -9.7 -6.7 -11 -1.3 -3.1 0.4 -7 3.5 -8.2 3.2 -1.2 152.6 -4.1 212.5 -4.1 l44.5 0 2.3 2.7 c3 3.4 2.7 4.6 -5.1 19.8 -4.3 8.4 -7 12.5 -8.7 13.3 -2.5 1.1 -41.7 1.9 -142.3 2.7 -22.4 0.2 -41.1 0.6 -41.4 0.9 -0.6 0.7 20.4 34.3 28.5 45.5 3.1 4.3 12 18.1 19.9 30.7 8 12.7 15.7 24.6 17.2 26.5 1.5 1.9 6.3 9.1 10.6 16 4.3 6.9 9.7 15.2 12 18.5 2.2 3.3 5.6 8.5 7.4 11.5 2.3 3.6 3.6 5 3.9 4 1.1 -3.1 13.3 -17.8 15.3 -18.3 3.7 -1 5.8 0.6 13.4 10.3 9.1 11.5 9.4 13.3 3.5 22 -2.2 3.2 -4 6.1 -4 6.4 0 0.6 -22.3 32.1 -25.3 35.8 -2.3 2.8 -5 3.8 -8 3.1z m14.4 -24 c6.2 -9.3 13.5 -19.8 16.1 -23.6 l4.8 -6.7 -6.1 -7.8 c-3.3 -4.2 -6.4 -7.7 -6.9 -7.7 -0.4 0 -4.7 5.3 -9.5 11.8 l-8.7 11.7 -5.4 -8.2 c-3 -4.5 -5.4 -8.5 -5.4 -8.9 0 -0.4 -0.4 -0.9 -0.8 -1.1 -0.5 -0.1 -6.7 -9.3 -13.7 -20.3 -7.1 -11 -19 -29.3 -26.4 -40.7 -7.5 -11.4 -17.1 -26 -21.3 -32.5 -4.2 -6.5 -14.6 -22.6 -23.2 -35.8 -8.6 -13.2 -15.6 -24.4 -15.6 -25 0 -0.8 8.1 -1.1 26.3 -1.1 38.3 0.1 167.8 -1.1 168.2 -1.6 0.2 -0.2 2.9 -5.7 5.9 -12.1 l5.5 -11.7 -15.7 0.5 c-24.6 0.8 -71.8 1.4 -146.7 2.1 -37.9 0.4 -73.4 0.9 -78.8 1.3 l-9.7 0.6 23.2 35 c29.8 45 95.5 144.2 115.6 174.7 8.7 13 16 23.7 16.3 23.7 0.4 0.1 5.8 -7.4 12 -16.6z"/>
  <path d="M326.8 453.8 c-2 -0.7 -6 -5.8 -14.9 -18.6 -6.7 -9.7 -15.2 -21.7 -18.9 -26.7 -3.6 -4.9 -8.5 -11.7 -10.8 -15 -2.3 -3.3 -9.7 -14 -16.5 -23.7 -6.8 -9.8 -13.3 -18.8 -14.4 -20 -1.1 -1.3 -7.5 -10.2 -14.1 -19.8 -6.7 -9.6 -15.3 -21.8 -19.1 -27 -15 -20.2 -33.1 -47.4 -33.1 -49.7 0 -1.3 1.2 -3.6 2.6 -5 l2.6 -2.6 16.7 0.6 16.6 0.6 4.3 4.8 c2.3 2.6 9.5 12.2 16 21.3 6.4 9.1 13.5 18.8 15.7 21.5 2.2 2.8 8.7 11.5 14.5 19.5 12.7 17.7 22 30.2 26.3 35.5 1.8 2.2 9.1 12.2 16.2 22.2 l12.9 18.2 3.7 -5.7 c17.5 -27.4 23.1 -36.4 23.9 -38.4 0.5 -1.3 4.7 -8.1 9.4 -15.3 8.1 -12.4 19.1 -30.1 32.2 -52 3.4 -5.5 9.5 -15.3 13.8 -21.8 l7.7 -11.9 -16.1 0.4 c-16 0.3 -16.2 0.3 -18.1 -2.1 -2.1 -2.6 -2.5 -8.1 -0.8 -9.8 0.6 -0.6 1.6 -2.1 2.3 -3.2 2.7 -4.9 12.7 -18.8 15.1 -21.1 l2.7 -2.5 36.3 -0.8 c23.5 -0.4 37.2 -0.4 38.9 0.3 1.5 0.5 3.1 2.2 3.7 3.7 1.2 3.3 0.5 5.1 -5.6 14.4 -2.4 3.6 -5.1 8.1 -6.1 10 -2.4 4.4 -9.5 15.6 -25.7 40.5 -7.1 10.9 -14.2 22.2 -15.9 25.3 -1.7 3.1 -6.6 10.8 -10.9 17.2 -8.2 12.2 -25.9 40.6 -25.9 41.4 0 0.3 -5.3 8.5 -11.8 18.3 -11.4 17 -22.2 33.9 -22.2 34.8 0 0.2 -3 5 -6.7 10.8 -3.8 5.7 -9.8 15.1 -13.4 20.8 -3.7 5.8 -7.5 10.7 -8.5 11 -1.1 0.3 -3.1 0.1 -4.6 -0.4z m3.2 -7.7 c0 -0.5 5.3 -9.1 11.8 -19.2 6.5 -10.1 15.9 -24.8 20.8 -32.7 4.9 -7.8 14.9 -23.5 22.2 -34.8 7.2 -11.4 13.2 -20.8 13.2 -21 0 -0.3 4.4 -7.3 9.8 -15.7 5.4 -8.4 15.4 -24 22.2 -34.7 6.8 -10.7 16.9 -26.7 22.5 -35.5 16.5 -25.6 24.5 -38.6 24.5 -39.6 0 -1 -23.4 -1 -51.3 0 l-17.9 0.6 -8.8 12.1 -8.8 12.1 9.1 0.6 c5.1 0.3 14 0.3 19.8 0 7.4 -0.4 10.8 -0.2 11.3 0.6 0.4 0.6 -1.8 5.3 -5 10.4 -3.2 5 -11.8 18.9 -19.2 30.7 -24 38.3 -50.9 81.8 -53.7 86.7 -6 10.4 -21.7 34.3 -22.5 34.3 -0.9 0 -5.6 -6.3 -32 -42.7 -7.7 -10.6 -14.9 -20.3 -16 -21.5 -1 -1.3 -5.9 -7.8 -10.7 -14.4 -4.8 -6.7 -14.6 -20.2 -21.8 -30 -7.1 -9.9 -13.7 -18.8 -14.7 -19.8 -0.9 -1 -4.5 -5.9 -8 -10.7 l-6.2 -8.9 -14.3 0 c-7.9 0 -14.3 0.3 -14.3 0.6 0 0.3 4.4 6.7 9.8 14.2 5.4 7.5 13.3 18.7 17.5 24.7 4.3 6.1 12.7 18 18.8 26.5 13.3 18.7 28.9 40.7 46.4 65.5 7.2 10.1 18.2 25.6 24.5 34.5 6.3 8.9 13.3 18.8 15.5 22 3.8 5.5 5.5 7.2 5.5 5.1z"/>
  <path d="M307.5 350 c-2.4 -1 -6.3 -5.2 -13.5 -14.5 -7.3 -9.4 -7.2 -10.8 1.5 -25.5 3.7 -6.3 9.1 -16 12 -21.5 2.9 -5.5 9.3 -17 14.2 -25.5 4.9 -8.5 12.1 -21.6 16 -29 3.9 -7.4 12.7 -23.3 19.6 -35.3 6.9 -12 13 -23.1 13.6 -24.7 l1 -3 -11.7 -0.1 c-6.4 0 -47.6 -0.2 -91.4 -0.5 -43.9 -0.2 -79.8 -0.1 -79.8 0.3 0 0.4 2.1 3.8 4.7 7.7 5.2 7.8 5.8 11.5 2.4 14.9 -1.9 2 -3.6 2.3 -17.4 3 -8.3 0.4 -16 0.7 -17.1 0.8 -2.5 0 -4.7 -2.2 -10.9 -10.6 -2.8 -3.8 -5.7 -7.4 -6.4 -8 -0.6 -0.5 -7.1 -9.1 -14.3 -19 -11.6 -15.9 -13.1 -18.3 -12.5 -21 1.2 -6.5 -12 -6 160.5 -6 147.6 0 157 0.1 158.7 1.7 3.4 3.5 2.1 7.5 -7.4 22.9 -5 8 -10.6 17.4 -12.5 21 -3.3 6 -18.5 31.4 -32.7 54.4 -3.3 5.4 -6.1 10.2 -6.1 10.6 0 0.4 -5 8.7 -11.1 18.6 -6.2 9.8 -14.3 23.4 -18.2 30.3 -7.4 13.4 -32 53.4 -34.4 56.2 -1.8 2 -4.3 2.7 -6.8 1.8z m11.2 -21.5 c3.8 -6.6 11.7 -19.9 17.5 -29.5 31.8 -52.5 46.6 -77.3 50.5 -84.4 2.5 -4.3 7 -12 10.1 -17 3.2 -5 7.7 -12.5 10.1 -16.6 2.4 -4.1 7.7 -12.9 11.6 -19.5 8.7 -14.6 12.5 -21.2 12.5 -21.9 0 -0.4 -240.5 -0.2 -293.3 0.3 l-13.8 0.1 7.2 9.3 c3.9 5 12.3 16.3 18.7 25 l11.7 15.8 13.4 -0.6 c7.4 -0.3 14 -0.9 14.7 -1.3 0.9 -0.5 -0.7 -3.9 -5.7 -12.2 -3.8 -6.3 -6.9 -11.9 -6.9 -12.4 0 -0.8 205.9 0 206.8 0.9 0.2 0.2 -3.2 6.8 -7.6 14.7 -4.3 7.9 -9.6 17.5 -11.7 21.3 -2.1 3.9 -7.3 13.1 -11.5 20.5 -4.3 7.4 -9.9 17.6 -12.5 22.5 -2.6 5 -8.8 16.2 -13.8 25 -15.3 27.2 -22.2 39.7 -27 48.6 l-4.6 8.6 7.1 8.8 c5.8 7.2 7.2 8.5 8.3 7.4 0.7 -0.8 4.4 -6.8 8.2 -13.4z"/>
 </g>
</svg>